<?xml version="1.0" encoding="UTF-8" standalone="no" ?>
<!DOCTYPE svg PUBLIC "-//W3C//DTD SVG 1.1//EN" "http://www.w3.org/Graphics/SVG/1.1/DTD/svg11.dtd">
<svg xmlns="http://www.w3.org/2000/svg" xmlns:xlink="http://www.w3.org/1999/xlink" version="1.1" width="1280" height="1024" viewBox="0 0 1280 1024" xml:space="preserve">
<desc>Created with Fabric.js 3.6.3</desc>
<defs>
</defs>
<g transform="matrix(1.9662058371735789 0 0 1.9662058371735789 640.2456813819576 512.1966205837173)" id="background-logo"  >
<rect style="stroke: none; stroke-width: 1; stroke-dasharray: none; stroke-linecap: butt; stroke-dashoffset: 0; stroke-linejoin: miter; stroke-miterlimit: 4; fill: rgb(255,255,255); fill-rule: nonzero; opacity: 1;"  paint-order="stroke"  x="-325" y="-260" rx="0" ry="0" width="650" height="520" />
</g>
<g transform="matrix(1.9699870022450665 0 0 1.9699870022450665 807.6897231472117 479.3321411872348)" id="text-logo-path"  >
<path style="stroke: rgb(255,255,255); stroke-width: 0; stroke-dasharray: none; stroke-linecap: butt; stroke-dashoffset: 0; stroke-linejoin: miter; stroke-miterlimit: 4; fill: rgb(204,84,52); fill-rule: nonzero; opacity: 1;"  paint-order="stroke"  transform=" translate(-172.88500000000002, 10.535)" d="M 10.32 -7.96 L 1.33 -21.09 L 7.19 -21.09 L 12.93 -12.46 L 18.57 -21.09 L 24.49 -21.09 L 15.44 -7.96 L 15.44 0 L 10.32 0 L 10.32 -7.96 Z M 22.75 -10.54 L 22.75 -10.54 Q 22.75 -12.75 23.61 -14.76 Q 24.46 -16.77 25.91 -18.24 Q 27.37 -19.71 29.38 -20.58 Q 31.39 -21.45 33.62 -21.45 L 33.62 -21.45 Q 35.81 -21.45 37.83 -20.58 Q 39.85 -19.71 41.31 -18.24 Q 42.76 -16.77 43.63 -14.75 Q 44.5 -12.73 44.5 -10.54 L 44.5 -10.54 Q 44.5 -8.33 43.64 -6.3 Q 42.78 -4.28 41.32 -2.82 Q 39.85 -1.36 37.83 -0.49 Q 35.81 0.38 33.62 0.38 L 33.62 0.38 Q 30.65 0.38 28.15 -1.09 Q 25.64 -2.56 24.2 -5.06 Q 22.75 -7.57 22.75 -10.54 Z M 27.4 -10.54 L 27.4 -10.54 Q 27.4 -7.96 29.22 -6.15 Q 31.05 -4.34 33.62 -4.34 L 33.62 -4.34 Q 36.16 -4.34 37.98 -6.15 Q 39.79 -7.96 39.79 -10.54 L 39.79 -10.54 Q 39.79 -13.08 37.98 -14.89 Q 36.16 -16.71 33.62 -16.71 L 33.62 -16.71 Q 31.05 -16.71 29.22 -14.9 Q 27.4 -13.09 27.4 -10.54 Z M 46.82 -10.54 L 46.82 -10.54 Q 46.82 -12.71 47.68 -14.71 Q 48.54 -16.71 50.04 -18.19 Q 51.54 -19.68 53.69 -20.56 Q 55.84 -21.45 58.26 -21.45 L 58.26 -21.45 Q 61.23 -21.45 63.65 -20.22 Q 66.07 -18.98 67.71 -16.83 L 67.71 -16.83 L 63.32 -14.61 Q 61.67 -16.68 58.2 -16.68 L 58.2 -16.68 Q 55.45 -16.68 53.69 -14.96 Q 51.93 -13.23 51.93 -10.6 L 51.93 -10.6 Q 51.93 -8.04 53.74 -6.21 Q 55.54 -4.37 58.26 -4.37 L 58.26 -4.37 Q 61.56 -4.37 63.44 -6.15 L 63.44 -6.15 L 63.44 -8.19 L 57.02 -8.19 L 57.02 -12.09 L 67.93 -12.09 L 67.93 -4.28 Q 67.86 -4.12 67.48 -3.68 Q 67.1 -3.24 66.25 -2.52 Q 65.39 -1.8 64.32 -1.17 Q 63.26 -0.54 61.64 -0.08 Q 60.03 0.38 58.29 0.38 L 58.29 0.38 Q 55.75 0.38 53.57 -0.53 Q 51.39 -1.44 49.93 -2.95 Q 48.47 -4.47 47.64 -6.43 Q 46.82 -8.4 46.82 -10.54 Z M 74.68 0 L 69.3 0 L 78.32 -21.09 L 83.98 -21.09 L 93.03 0 L 87.61 0 L 86.25 -3.28 L 76.08 -3.28 L 74.68 0 Z M 81.19 -15.32 L 77.85 -7.45 L 84.48 -7.45 L 81.19 -15.32 Z M 109.65 0 L 102.64 -21.09 L 108.06 -21.09 L 112.44 -7.4 L 117.23 -21.09 L 122.79 -21.09 L 127.07 -7.48 L 131.96 -21.09 L 137.43 -21.09 L 129.51 0 L 124.3 0 L 119.88 -13.73 L 114.92 0 L 109.65 0 Z M 146.01 0 L 140.92 0 L 140.92 -21.09 L 146.01 -21.09 L 146.01 0 Z M 156.94 -16.36 L 149.48 -16.36 L 149.48 -21.09 L 169.56 -21.09 L 169.56 -16.36 L 162.08 -16.36 L 162.08 0 L 156.94 0 L 156.94 -16.36 Z M 178.11 0 L 173.03 0 L 173.03 -21.09 L 178.11 -21.09 L 178.11 -12.9 L 187.38 -12.9 L 187.38 -21.09 L 192.49 -21.09 L 192.49 0 L 187.38 0 L 187.38 -8.19 L 178.11 -8.19 L 178.11 0 Z M 209.63 0 L 204.54 0 L 204.54 -21.09 L 214.73 -21.09 Q 217.95 -21.09 220.1 -18.84 Q 222.24 -16.59 222.24 -13.17 L 222.24 -13.17 Q 222.24 -10.91 221.22 -9.1 Q 220.21 -7.28 218.48 -6.36 L 218.48 -6.36 L 222.83 0 L 216.5 0 L 213.34 -5.24 L 209.63 -5.24 L 209.63 0 Z M 209.63 -16.36 L 209.63 -9.94 L 213.99 -9.94 Q 215.29 -9.94 216.21 -10.89 Q 217.12 -11.84 217.12 -13.17 L 217.12 -13.17 Q 217.12 -14.47 216.21 -15.42 Q 215.3 -16.36 214.02 -16.36 L 214.02 -16.36 L 209.63 -16.36 Z M 230.59 0 L 225.2 0 L 234.23 -21.09 L 239.89 -21.09 L 248.94 0 L 243.52 0 L 242.16 -3.28 L 231.99 -3.28 L 230.59 0 Z M 237.1 -15.32 L 233.76 -7.45 L 240.39 -7.45 L 237.1 -15.32 Z M 257.48 0 L 252.39 0 L 252.39 -21.09 L 258.02 -21.09 L 265.38 -5.62 L 272.69 -21.09 L 278.36 -21.09 L 278.36 0 L 273.25 0 L 273.25 -10.76 L 268.19 0 L 262.52 0 L 257.48 -10.76 L 257.48 0 Z M 281.98 -10.82 L 281.98 -10.82 L 281.98 -21.09 L 287.07 -21.09 L 287.07 -10.82 Q 287.07 -7.75 288.35 -6.05 Q 289.64 -4.34 292.03 -4.34 L 292.03 -4.34 Q 294.41 -4.34 295.79 -6.07 Q 297.18 -7.8 297.18 -10.82 L 297.18 -10.82 L 297.18 -21.09 L 302.33 -21.09 L 302.33 -10.82 Q 302.33 -8.25 301.55 -6.13 Q 300.77 -4.01 299.39 -2.6 Q 298.01 -1.18 296.13 -0.4 Q 294.24 0.38 292.03 0.38 L 292.03 0.38 Q 287.49 0.38 284.74 -2.63 Q 281.98 -5.65 281.98 -10.82 Z M 312.19 -16.36 L 304.73 -16.36 L 304.73 -21.09 L 324.82 -21.09 L 324.82 -16.36 L 317.34 -16.36 L 317.34 0 L 312.19 0 L 312.19 -16.36 Z M 344.44 0 L 328.29 0 L 328.29 -21.09 L 344.44 -21.09 L 344.44 -16.36 L 333.37 -16.36 L 333.37 -12.75 L 342.6 -12.75 L 342.6 -8.34 L 333.37 -8.34 L 333.37 -4.71 L 344.44 -4.71 L 344.44 0 Z" stroke-linecap="round" />
</g>
<g transform="matrix(1.9699870022450665 0 0 1.9699870022450665 808.086991033895 561.5078914389896)" id="tagline-0b666a6a-0ffd-4d76-81c3-18fd891e74ce-logo-path"  >
<path style="stroke: rgb(255,255,255); stroke-width: 0; stroke-dasharray: none; stroke-linecap: butt; stroke-dashoffset: 0; stroke-linejoin: miter; stroke-miterlimit: 4; fill: rgb(204,84,52); fill-rule: nonzero; opacity: 1;"  paint-order="stroke"  transform=" translate(-81.655, 3.09)" d="M 1 -5.27 L 1 -5.27 Q 1 -5.62 1.17 -5.99 Q 1.33 -6.37 1.6 -6.37 L 1.6 -6.37 L 5.83 -6.37 Q 5.92 -6.37 6 -6.42 Q 6.09 -6.47 6.11 -6.47 L 6.11 -6.47 Q 6.32 -6.47 6.32 -6.03 L 6.32 -6.03 Q 6.32 -5.64 6.12 -5.16 Q 5.93 -4.69 5.67 -4.69 L 5.67 -4.69 L 1.34 -4.69 Q 1.19 -4.69 1.1 -4.86 Q 1 -5.02 1 -5.27 Z M 12.34 -8.5 L 12.34 -8.5 Q 12.34 -11.54 14.27 -13.12 Q 16.2 -14.7 19.97 -14.7 L 19.97 -14.7 Q 20.64 -14.7 22.63 -14.68 Q 24.61 -14.66 24.74 -14.66 L 24.74 -14.66 Q 24.93 -14.66 25.06 -14.7 Q 25.19 -14.75 25.26 -14.79 Q 25.32 -14.83 25.34 -14.83 L 25.34 -14.83 Q 25.44 -14.83 25.53 -14.6 Q 25.62 -14.38 25.62 -14.13 L 25.62 -14.13 Q 25.62 -13.71 25.37 -13.37 Q 25.11 -13.02 24.66 -13.02 L 24.66 -13.02 Q 24.52 -13.02 20.61 -13.08 L 20.61 -13.08 L 20.61 -6.21 L 23.24 -6.21 Q 23.54 -6.44 23.58 -6.03 L 23.58 -6.03 Q 23.59 -5.97 23.59 -5.9 L 23.59 -5.9 Q 23.59 -5.5 23.38 -5.08 L 23.38 -5.08 Q 23.21 -4.75 23.04 -4.75 L 23.04 -4.75 L 20.61 -4.75 L 20.61 -1.18 Q 20.61 1.4 19.43 1.4 L 19.43 1.4 Q 19.05 1.4 18.56 0.95 Q 18.07 0.49 18.07 0.18 L 18.07 0.18 Q 18.07 0.06 18.1 0.04 Q 18.14 0.01 18.25 0.05 Q 18.36 0.08 18.43 0.08 L 18.43 0.08 Q 18.97 0.08 18.97 -1.45 L 18.97 -1.45 L 18.97 -4.75 L 17.88 -4.75 Q 17.58 -4.75 17.35 -5.09 Q 17.12 -5.43 17.12 -5.79 L 17.12 -5.79 Q 17.12 -5.98 17.21 -6.1 Q 17.29 -6.21 17.44 -6.21 L 17.44 -6.21 L 18.97 -6.21 L 18.97 -13.04 Q 17.81 -12.97 16.94 -12.71 Q 16.08 -12.46 15.39 -11.95 Q 14.7 -11.43 14.35 -10.57 Q 14 -9.71 14 -8.5 L 14 -8.5 Q 14 -6.84 15.19 -5.65 L 15.19 -5.65 Q 15.5 -5.73 15.5 -5.35 L 15.5 -5.35 Q 15.5 -4.93 15.18 -4.52 Q 14.86 -4.11 14.5 -4.11 L 14.5 -4.11 Q 14.32 -4.11 14.18 -4.22 L 14.18 -4.22 Q 13.57 -4.68 12.95 -5.85 Q 12.34 -7.02 12.34 -8.5 Z M 24.77 -11.38 L 24.77 -11.38 Q 24.77 -11.94 25.14 -12.3 Q 25.5 -12.66 26.03 -12.66 L 26.03 -12.66 Q 26.59 -12.66 26.95 -12.3 Q 27.32 -11.94 27.32 -11.38 L 27.32 -11.38 Q 27.32 -10.85 26.95 -10.47 Q 26.58 -10.1 26.03 -10.1 L 26.03 -10.1 Q 25.51 -10.1 25.14 -10.48 Q 24.77 -10.86 24.77 -11.38 Z M 24.83 -7.67 L 24.83 -7.67 Q 24.83 -7.82 25 -7.92 Q 25.16 -8.02 25.39 -8.02 L 25.39 -8.02 Q 25.9 -8.02 26.21 -7.75 Q 26.52 -7.49 26.52 -7.1 L 26.52 -7.1 L 26.52 -1.76 Q 26.52 -0.8 27.07 -0.8 L 27.07 -0.8 Q 28.02 -0.8 28.48 -3.07 L 28.48 -3.07 Q 28.61 -3.69 28.99 -3.69 L 28.99 -3.69 Q 29 -3.69 29.01 -3.69 L 29.01 -3.69 Q 29.35 -3.66 29.58 -3.26 L 29.58 -3.26 Q 29.76 -2.96 29.7 -2.69 L 29.7 -2.69 Q 29.53 -2.09 29.31 -1.58 Q 29.09 -1.07 28.74 -0.54 Q 28.38 -0.02 27.85 0.28 Q 27.33 0.58 26.69 0.58 L 26.69 0.58 Q 25.88 0.58 25.4 0.02 Q 24.93 -0.55 24.93 -1.38 L 24.93 -1.38 L 24.93 -6.99 Q 24.93 -7.23 24.88 -7.43 Q 24.83 -7.63 24.83 -7.67 Z M 28.46 -7.67 L 28.46 -7.67 Q 28.46 -7.82 28.63 -7.92 Q 28.79 -8.02 29.02 -8.02 L 29.02 -8.02 Q 29.53 -8.02 29.84 -7.75 Q 30.15 -7.49 30.15 -7.1 L 30.15 -7.1 L 30.15 -6.15 Q 31.14 -8.23 32.5 -8.23 L 32.5 -8.23 Q 33.01 -8.23 33.37 -8.04 Q 33.73 -7.85 33.91 -7.53 Q 34.09 -7.2 34.17 -6.85 Q 34.25 -6.51 34.25 -6.11 L 34.25 -6.11 L 34.25 -1.76 Q 34.25 -0.8 34.79 -0.8 L 34.79 -0.8 Q 35.75 -0.8 36.2 -3.07 L 36.2 -3.07 Q 36.26 -3.37 36.4 -3.53 Q 36.53 -3.69 36.7 -3.69 L 36.7 -3.69 Q 36.96 -3.69 37.2 -3.41 Q 37.44 -3.13 37.44 -2.83 L 37.44 -2.83 Q 37.44 -2.77 37.42 -2.69 L 37.42 -2.69 Q 37.29 -2.23 37.14 -1.81 Q 36.99 -1.39 36.72 -0.94 Q 36.46 -0.49 36.15 -0.16 Q 35.84 0.16 35.39 0.37 Q 34.94 0.58 34.41 0.58 L 34.41 0.58 Q 33.6 0.58 33.13 0.02 Q 32.65 -0.55 32.65 -1.38 L 32.65 -1.38 L 32.65 -5.65 Q 32.65 -5.93 32.63 -6.12 Q 32.62 -6.31 32.58 -6.49 Q 32.54 -6.67 32.44 -6.76 Q 32.35 -6.85 32.21 -6.85 L 32.21 -6.85 Q 31.9 -6.85 31.44 -6.34 Q 30.99 -5.83 30.6 -5 Q 30.22 -4.16 30.15 -3.38 L 30.15 -3.38 L 30.15 -0.32 Q 30.15 -0.13 30.15 -0.06 Q 30.15 0.01 30.12 0.16 Q 30.08 0.32 30.03 0.39 Q 29.97 0.46 29.85 0.52 Q 29.74 0.58 29.56 0.58 L 29.56 0.58 Q 28.56 0.58 28.56 -0.34 L 28.56 -0.34 L 28.56 -6.99 Q 28.56 -7.23 28.51 -7.43 Q 28.46 -7.63 28.46 -7.67 Z M 35.78 -2.79 L 35.78 -2.79 Q 35.78 -5.09 36.99 -6.51 Q 38.21 -7.94 40.02 -8.19 L 40.02 -8.19 L 40.02 -12.94 Q 40.02 -13.3 39.91 -13.51 Q 39.81 -13.72 39.81 -13.73 L 39.81 -13.73 Q 39.81 -13.83 40.02 -13.9 Q 40.24 -13.97 40.48 -13.97 L 40.48 -13.97 Q 41 -13.97 41.3 -13.7 Q 41.61 -13.43 41.61 -13.04 L 41.61 -13.04 L 41.61 -1.76 Q 41.61 -1.37 41.79 -1.09 Q 41.98 -0.8 42.33 -0.8 L 42.33 -0.8 Q 43.28 -0.8 43.73 -3.07 L 43.73 -3.07 Q 43.79 -3.37 43.93 -3.53 Q 44.07 -3.69 44.24 -3.69 L 44.24 -3.69 Q 44.49 -3.69 44.73 -3.41 Q 44.97 -3.13 44.97 -2.83 L 44.97 -2.83 Q 44.97 -2.77 44.95 -2.69 L 44.95 -2.69 Q 44.83 -2.23 44.68 -1.81 Q 44.52 -1.39 44.26 -0.94 Q 44 -0.49 43.69 -0.16 Q 43.37 0.16 42.92 0.37 Q 42.47 0.58 41.95 0.58 L 41.95 0.58 Q 40.89 0.58 40.35 -0.24 L 40.35 -0.24 Q 39.53 0.58 38.48 0.58 L 38.48 0.58 Q 37.23 0.58 36.5 -0.29 Q 35.78 -1.17 35.78 -2.79 Z M 37.4 -2.94 L 37.4 -2.94 Q 37.4 -1.88 37.8 -1.34 Q 38.2 -0.8 38.8 -0.8 L 38.8 -0.8 Q 39.53 -0.8 40.02 -1.62 L 40.02 -1.62 L 40.02 -6.81 Q 39.48 -6.71 39.03 -6.46 Q 38.59 -6.21 38.2 -5.77 Q 37.82 -5.33 37.61 -4.61 Q 37.4 -3.89 37.4 -2.94 Z M 48.15 -2.42 L 48.15 -2.42 Q 48.15 -3.4 48.34 -4.58 Q 48.53 -5.76 48.72 -6.45 L 48.72 -6.45 L 48.91 -7.14 Q 48.94 -7.2 48.97 -7.35 Q 49 -7.5 49.04 -7.57 Q 49.09 -7.65 49.18 -7.74 Q 49.28 -7.83 49.49 -7.88 Q 49.7 -7.92 50.02 -7.92 L 50.02 -7.92 Q 50.31 -7.92 50.45 -7.83 Q 50.6 -7.74 50.6 -7.59 Q 50.6 -7.44 50.57 -7.31 Q 50.53 -7.17 50.45 -6.99 Q 50.38 -6.82 50.36 -6.76 L 50.36 -6.76 Q 50.12 -5.78 50.02 -5.31 Q 49.92 -4.84 49.83 -4.1 Q 49.75 -3.36 49.75 -2.52 Q 49.75 -1.68 50 -1.23 Q 50.25 -0.78 50.72 -0.78 L 50.72 -0.78 Q 51.31 -0.78 51.77 -1.6 Q 52.23 -2.42 52.44 -3.61 L 52.44 -3.61 L 52.44 -6.99 Q 52.44 -7.23 52.4 -7.43 Q 52.36 -7.63 52.36 -7.67 L 52.36 -7.67 Q 52.36 -7.82 52.52 -7.92 Q 52.67 -8.02 52.9 -8.02 L 52.9 -8.02 Q 53.41 -8.02 53.72 -7.75 Q 54.03 -7.49 54.03 -7.1 L 54.03 -7.1 L 54.03 0.28 Q 55.33 -1.17 55.88 -3.07 L 55.88 -3.07 Q 56.06 -3.69 56.39 -3.69 L 56.39 -3.69 Q 56.64 -3.69 56.88 -3.41 Q 57.12 -3.13 57.12 -2.83 L 57.12 -2.83 Q 57.12 -2.71 57.1 -2.63 L 57.1 -2.63 Q 56.85 -1.75 56.49 -1.03 Q 56.14 -0.3 55.71 0.27 Q 55.28 0.84 54.9 1.23 Q 54.53 1.61 54.03 2.04 L 54.03 2.04 L 54.03 5.67 Q 54.03 7.2 53.39 7.93 Q 52.76 8.65 51.85 8.65 L 51.85 8.65 Q 50.98 8.65 50.41 7.95 Q 49.83 7.25 49.83 6.23 L 49.83 6.23 Q 49.83 5.62 49.99 5.07 Q 50.14 4.51 50.34 4.13 Q 50.53 3.75 50.94 3.28 Q 51.35 2.81 51.62 2.56 Q 51.88 2.32 52.44 1.83 L 52.44 1.83 L 52.44 -0.84 Q 51.58 0.6 50.38 0.6 L 50.38 0.6 Q 49.33 0.6 48.74 -0.22 Q 48.15 -1.04 48.15 -2.42 Z M 51.3 6.17 L 51.3 6.17 Q 51.3 6.67 51.45 7 Q 51.61 7.33 51.85 7.33 L 51.85 7.33 Q 51.97 7.33 52.05 7.29 Q 52.14 7.25 52.2 7.17 Q 52.26 7.09 52.31 6.99 Q 52.36 6.9 52.38 6.77 Q 52.4 6.63 52.41 6.53 Q 52.43 6.42 52.43 6.28 Q 52.44 6.13 52.44 6.04 Q 52.44 5.96 52.44 5.83 Q 52.44 5.7 52.44 5.67 L 52.44 5.67 L 52.44 3.42 Q 51.88 4 51.59 4.64 Q 51.3 5.28 51.3 6.17 Z M 55.69 -3.32 L 55.69 -3.32 Q 55.69 -4.19 55.87 -5.01 Q 56.05 -5.83 56.31 -6.4 Q 56.58 -6.97 56.88 -7.41 Q 57.18 -7.85 57.43 -8.06 Q 57.69 -8.27 57.83 -8.27 L 57.83 -8.27 Q 58.03 -8.27 58.2 -8.1 Q 58.38 -7.92 58.45 -7.68 Q 58.53 -7.44 58.49 -7.19 Q 58.45 -6.93 58.25 -6.81 L 58.25 -6.81 Q 57.81 -6.15 57.65 -5.72 L 57.65 -5.72 Q 57.29 -4.8 57.29 -3.45 L 57.29 -3.45 Q 57.29 -2.17 57.72 -1.49 Q 58.15 -0.8 58.8 -0.8 L 58.8 -0.8 Q 59.58 -0.8 60.04 -1.6 L 60.04 -1.6 Q 59.31 -2.23 58.92 -3.2 Q 58.53 -4.18 58.53 -5.33 L 58.53 -5.33 Q 58.53 -6.39 58.97 -7.09 Q 59.41 -7.79 60.22 -7.79 L 60.22 -7.79 Q 60.97 -7.79 61.49 -6.78 Q 62.02 -5.77 62.02 -4.27 L 62.02 -4.27 Q 62.02 -3.04 61.72 -2 L 61.72 -2 Q 61.9 -1.95 62.14 -1.95 L 62.14 -1.95 Q 62.77 -1.95 63.16 -2.37 Q 63.54 -2.8 63.65 -3.47 L 63.65 -3.47 Q 63.69 -3.71 64.06 -3.78 L 64.06 -3.78 Q 64.16 -3.8 64.25 -3.8 L 64.25 -3.8 Q 64.56 -3.8 64.75 -3.57 L 64.75 -3.57 Q 64.88 -3.4 64.88 -3.15 L 64.88 -3.15 Q 64.88 -3.01 64.85 -2.86 L 64.85 -2.86 Q 64.64 -1.95 63.98 -1.36 Q 63.32 -0.78 62.3 -0.78 L 62.3 -0.78 Q 61.72 -0.78 61.28 -0.92 L 61.28 -0.92 Q 60.41 0.58 58.75 0.58 L 58.75 0.58 Q 57.25 0.58 56.47 -0.52 Q 55.69 -1.63 55.69 -3.32 Z M 59.64 -5.41 L 59.64 -5.41 Q 59.64 -4 60.44 -2.96 L 60.44 -2.96 Q 60.5 -3.47 60.5 -3.93 L 60.5 -3.93 Q 60.5 -5.17 60.4 -5.79 Q 60.3 -6.41 60 -6.41 L 60 -6.41 Q 59.64 -6.41 59.64 -5.41 Z M 63.37 -2.42 L 63.37 -2.42 Q 63.37 -3.4 63.56 -4.58 Q 63.75 -5.76 63.93 -6.45 L 63.93 -6.45 L 64.13 -7.14 Q 64.16 -7.2 64.19 -7.35 Q 64.22 -7.5 64.26 -7.57 Q 64.3 -7.65 64.4 -7.74 Q 64.5 -7.83 64.71 -7.88 Q 64.92 -7.92 65.24 -7.92 L 65.24 -7.92 Q 65.52 -7.92 65.67 -7.83 Q 65.82 -7.74 65.82 -7.59 Q 65.82 -7.44 65.78 -7.31 Q 65.75 -7.17 65.67 -6.99 Q 65.59 -6.82 65.57 -6.76 L 65.57 -6.76 Q 65.34 -5.78 65.24 -5.31 Q 65.13 -4.84 65.05 -4.1 Q 64.97 -3.36 64.97 -2.52 Q 64.97 -1.68 65.22 -1.23 Q 65.47 -0.78 65.93 -0.78 L 65.93 -0.78 Q 66.53 -0.78 66.99 -1.6 Q 67.45 -2.42 67.66 -3.61 L 67.66 -3.61 L 67.66 -6.99 Q 67.66 -7.35 67.55 -7.57 Q 67.44 -7.78 67.44 -7.79 L 67.44 -7.79 Q 67.44 -7.9 67.66 -7.96 Q 67.87 -8.02 68.12 -8.02 L 68.12 -8.02 Q 68.63 -8.02 68.94 -7.75 Q 69.24 -7.49 69.24 -7.1 L 69.24 -7.1 L 69.24 -1.76 Q 69.24 -0.8 69.8 -0.8 L 69.8 -0.8 Q 70.75 -0.8 71.2 -3.07 L 71.2 -3.07 Q 71.26 -3.37 71.4 -3.53 Q 71.54 -3.69 71.71 -3.69 L 71.71 -3.69 Q 71.96 -3.69 72.2 -3.41 Q 72.44 -3.13 72.44 -2.83 L 72.44 -2.83 Q 72.44 -2.77 72.42 -2.69 L 72.42 -2.69 Q 72.26 -2.09 72.04 -1.58 Q 71.82 -1.07 71.46 -0.54 Q 71.11 -0.02 70.58 0.28 Q 70.05 0.58 69.42 0.58 L 69.42 0.58 Q 68.73 0.58 68.27 0.17 Q 67.81 -0.25 67.7 -0.9 L 67.7 -0.9 Q 66.83 0.6 65.59 0.6 L 65.59 0.6 Q 64.55 0.6 63.96 -0.22 Q 63.37 -1.04 63.37 -2.42 Z M 70.65 -8.17 L 70.65 -8.17 Q 70.65 -8.59 70.97 -8.86 Q 71.29 -9.14 71.71 -9.14 L 71.71 -9.14 Q 72.14 -9.14 72.5 -8.87 Q 72.86 -8.61 73.03 -8.02 L 73.03 -8.02 Q 73.73 -7.94 74.14 -7.94 L 74.14 -7.94 L 75.23 -7.94 Q 75.47 -7.94 75.88 -7.51 L 75.88 -7.51 Q 76.25 -7.13 76.25 -6.83 L 76.25 -6.83 Q 76.25 -6.79 76.24 -6.76 L 76.24 -6.76 Q 76.24 -6.71 76 -5.92 Q 75.77 -5.14 75.53 -3.99 Q 75.29 -2.85 75.29 -1.93 L 75.29 -1.93 Q 75.29 -1.46 75.51 -1.13 Q 75.74 -0.8 76.14 -0.8 L 76.14 -0.8 Q 77.19 -0.8 77.64 -3.07 L 77.64 -3.07 Q 77.7 -3.37 77.84 -3.53 Q 77.98 -3.69 78.15 -3.69 L 78.15 -3.69 Q 78.4 -3.69 78.64 -3.41 Q 78.88 -3.13 78.88 -2.83 L 78.88 -2.83 Q 78.88 -2.8 78.87 -2.75 Q 78.86 -2.71 78.86 -2.69 L 78.86 -2.69 Q 78.7 -2.09 78.48 -1.58 Q 78.26 -1.07 77.9 -0.54 Q 77.55 -0.02 77.02 0.28 Q 76.49 0.58 75.86 0.58 L 75.86 0.58 Q 75.46 0.58 75.1 0.47 Q 74.74 0.35 74.41 0.09 Q 74.08 -0.17 73.89 -0.66 Q 73.69 -1.15 73.69 -1.8 L 73.69 -1.8 Q 73.69 -3.63 74.75 -6.45 L 74.75 -6.45 L 73.15 -6.45 L 72.92 -6.45 Q 72.85 -4.07 72.39 -2.58 L 72.39 -2.58 Q 72.27 -2.18 71.96 -2.18 L 71.96 -2.18 Q 71.89 -2.18 71.82 -2.2 L 71.82 -2.2 Q 71.47 -2.29 71.29 -2.67 L 71.29 -2.67 Q 71.16 -2.92 71.22 -3.17 L 71.22 -3.17 Q 71.5 -4.15 71.55 -6.83 L 71.55 -6.83 Q 70.65 -7.34 70.65 -8.17 Z M 82.19 -11.38 L 82.19 -11.38 Q 82.19 -11.94 82.55 -12.3 Q 82.91 -12.66 83.45 -12.66 L 83.45 -12.66 Q 84 -12.66 84.36 -12.3 Q 84.73 -11.94 84.73 -11.38 L 84.73 -11.38 Q 84.73 -10.85 84.36 -10.47 Q 83.99 -10.1 83.45 -10.1 L 83.45 -10.1 Q 82.92 -10.1 82.55 -10.48 Q 82.19 -10.86 82.19 -11.38 Z M 82.25 -7.67 L 82.25 -7.67 Q 82.25 -7.82 82.41 -7.92 Q 82.57 -8.02 82.8 -8.02 L 82.8 -8.02 Q 83.31 -8.02 83.62 -7.75 Q 83.93 -7.49 83.93 -7.1 L 83.93 -7.1 L 83.93 -1.76 Q 83.93 -0.8 84.48 -0.8 L 84.48 -0.8 Q 85.44 -0.8 85.89 -3.07 L 85.89 -3.07 Q 86.02 -3.69 86.4 -3.69 L 86.4 -3.69 Q 86.41 -3.69 86.42 -3.69 L 86.42 -3.69 Q 86.76 -3.66 86.99 -3.26 L 86.99 -3.26 Q 87.17 -2.96 87.11 -2.69 L 87.11 -2.69 Q 86.94 -2.09 86.72 -1.58 Q 86.5 -1.07 86.15 -0.54 Q 85.79 -0.02 85.27 0.28 Q 84.74 0.58 84.1 0.58 L 84.1 0.58 Q 83.29 0.58 82.82 0.02 Q 82.34 -0.55 82.34 -1.38 L 82.34 -1.38 L 82.34 -6.99 Q 82.34 -7.23 82.29 -7.43 Q 82.25 -7.63 82.25 -7.67 Z M 85.88 -7.67 L 85.88 -7.67 Q 85.88 -7.82 86.04 -7.92 Q 86.2 -8.02 86.43 -8.02 L 86.43 -8.02 Q 86.94 -8.02 87.25 -7.75 Q 87.56 -7.49 87.56 -7.1 L 87.56 -7.1 L 87.56 -6.15 Q 88.55 -8.23 89.92 -8.23 L 89.92 -8.23 Q 90.42 -8.23 90.78 -8.04 Q 91.14 -7.85 91.32 -7.53 Q 91.51 -7.2 91.58 -6.85 Q 91.66 -6.51 91.66 -6.11 L 91.66 -6.11 L 91.66 -1.76 Q 91.66 -0.8 92.2 -0.8 L 92.2 -0.8 Q 93.16 -0.8 93.61 -3.07 L 93.61 -3.07 Q 93.67 -3.37 93.81 -3.53 Q 93.95 -3.69 94.11 -3.69 L 94.11 -3.69 Q 94.37 -3.69 94.61 -3.41 Q 94.85 -3.13 94.85 -2.83 L 94.85 -2.83 Q 94.85 -2.77 94.83 -2.69 L 94.83 -2.69 Q 94.71 -2.23 94.55 -1.81 Q 94.4 -1.39 94.14 -0.94 Q 93.87 -0.49 93.56 -0.16 Q 93.25 0.16 92.8 0.37 Q 92.35 0.58 91.82 0.58 L 91.82 0.58 Q 91.01 0.58 90.54 0.02 Q 90.06 -0.55 90.06 -1.38 L 90.06 -1.38 L 90.06 -5.65 Q 90.06 -5.93 90.04 -6.12 Q 90.03 -6.31 89.99 -6.49 Q 89.95 -6.67 89.85 -6.76 Q 89.76 -6.85 89.62 -6.85 L 89.62 -6.85 Q 89.31 -6.85 88.86 -6.34 Q 88.4 -5.83 88.01 -5 Q 87.63 -4.16 87.56 -3.38 L 87.56 -3.38 L 87.56 -0.32 Q 87.56 -0.13 87.56 -0.06 Q 87.56 0.01 87.53 0.16 Q 87.5 0.32 87.44 0.39 Q 87.38 0.46 87.27 0.52 Q 87.15 0.58 86.97 0.58 L 86.97 0.58 Q 85.97 0.58 85.97 -0.34 L 85.97 -0.34 L 85.97 -6.99 Q 85.97 -7.23 85.92 -7.43 Q 85.88 -7.63 85.88 -7.67 Z M 93.45 -7.67 L 93.45 -7.67 Q 93.45 -7.82 93.62 -7.92 Q 93.78 -8.02 94.01 -8.02 L 94.01 -8.02 Q 94.52 -8.02 94.83 -7.75 Q 95.14 -7.49 95.14 -7.1 L 95.14 -7.1 L 95.14 -6.15 Q 96.13 -8.23 97.49 -8.23 L 97.49 -8.23 Q 98 -8.23 98.36 -8.04 Q 98.71 -7.85 98.9 -7.53 Q 99.08 -7.2 99.16 -6.85 Q 99.24 -6.51 99.24 -6.11 L 99.24 -6.11 L 99.24 -1.76 Q 99.24 -0.8 99.78 -0.8 L 99.78 -0.8 Q 100.73 -0.8 101.19 -3.07 L 101.19 -3.07 Q 101.25 -3.37 101.39 -3.53 Q 101.52 -3.69 101.69 -3.69 L 101.69 -3.69 Q 101.94 -3.69 102.19 -3.41 Q 102.43 -3.13 102.43 -2.83 L 102.43 -2.83 Q 102.43 -2.77 102.41 -2.69 L 102.41 -2.69 Q 102.28 -2.23 102.13 -1.81 Q 101.98 -1.39 101.71 -0.94 Q 101.45 -0.49 101.14 -0.16 Q 100.83 0.16 100.38 0.37 Q 99.92 0.58 99.4 0.58 L 99.4 0.58 Q 98.59 0.58 98.11 0.02 Q 97.64 -0.55 97.64 -1.38 L 97.64 -1.38 L 97.64 -5.65 Q 97.64 -5.93 97.62 -6.12 Q 97.61 -6.31 97.57 -6.49 Q 97.52 -6.67 97.43 -6.76 Q 97.34 -6.85 97.2 -6.85 L 97.2 -6.85 Q 96.89 -6.85 96.43 -6.34 Q 95.98 -5.83 95.59 -5 Q 95.21 -4.16 95.14 -3.38 L 95.14 -3.38 L 95.14 -0.32 Q 95.14 -0.13 95.14 -0.06 Q 95.14 0.01 95.1 0.16 Q 95.07 0.32 95.02 0.39 Q 94.96 0.46 94.84 0.52 Q 94.73 0.58 94.55 0.58 L 94.55 0.58 Q 93.55 0.58 93.55 -0.34 L 93.55 -0.34 L 93.55 -6.99 Q 93.55 -7.23 93.5 -7.43 Q 93.45 -7.63 93.45 -7.67 Z M 100.85 -3.57 L 100.85 -3.57 Q 100.85 -5.52 101.83 -6.88 Q 102.81 -8.23 104.06 -8.23 L 104.06 -8.23 Q 104.93 -8.23 105.44 -7.65 Q 105.95 -7.06 105.95 -6.11 L 105.95 -6.11 Q 105.95 -5.31 105.62 -4.52 Q 105.28 -3.73 104.55 -3.06 Q 103.82 -2.39 102.85 -2.1 L 102.85 -2.1 Q 103.39 -0.8 104.79 -0.8 L 104.79 -0.8 Q 105.38 -0.8 105.85 -1.03 Q 106.31 -1.25 106.6 -1.65 Q 106.9 -2.05 107.08 -2.49 Q 107.26 -2.92 107.36 -3.45 L 107.36 -3.45 Q 107.44 -3.9 107.78 -3.98 L 107.78 -3.98 Q 107.87 -4 107.95 -4 L 107.95 -4 Q 108.2 -4 108.4 -3.82 L 108.4 -3.82 Q 108.65 -3.62 108.65 -3.32 L 108.65 -3.32 Q 108.65 -3.28 108.64 -3.23 L 108.64 -3.23 Q 108.59 -2.79 108.46 -2.34 Q 108.33 -1.89 108.03 -1.34 Q 107.73 -0.79 107.3 -0.38 Q 106.87 0.03 106.16 0.31 Q 105.45 0.58 104.57 0.58 L 104.57 0.58 Q 103.85 0.58 103.19 0.3 Q 102.52 0.01 102 -0.5 Q 101.47 -1.02 101.16 -1.81 Q 100.85 -2.61 100.85 -3.57 Z M 102.57 -3.63 L 102.57 -3.63 Q 102.57 -3.57 102.58 -3.44 Q 102.59 -3.31 102.59 -3.25 L 102.59 -3.25 Q 103.38 -3.61 103.85 -4.38 Q 104.31 -5.15 104.31 -6.09 L 104.31 -6.09 Q 104.31 -6.44 104.2 -6.63 Q 104.08 -6.83 103.87 -6.83 L 103.87 -6.83 Q 103.51 -6.83 103.24 -6.46 Q 102.96 -6.09 102.83 -5.56 L 102.83 -5.56 Q 102.68 -5.02 102.62 -4.51 L 102.62 -4.51 Q 102.57 -4.12 102.57 -3.81 L 102.57 -3.81 Q 102.57 -3.71 102.57 -3.63 Z M 106.72 -8.17 L 106.72 -8.17 Q 106.72 -8.59 107.04 -8.86 Q 107.36 -9.14 107.78 -9.14 L 107.78 -9.14 Q 108.21 -9.14 108.57 -8.87 Q 108.94 -8.61 109.1 -8.02 L 109.1 -8.02 Q 109.8 -7.94 110.21 -7.94 L 110.21 -7.94 L 111.31 -7.94 Q 111.54 -7.94 111.95 -7.51 L 111.95 -7.51 Q 112.32 -7.13 112.32 -6.83 L 112.32 -6.83 Q 112.32 -6.79 112.31 -6.76 L 112.31 -6.76 Q 112.31 -6.71 112.08 -5.92 Q 111.84 -5.14 111.6 -3.99 Q 111.37 -2.85 111.37 -1.93 L 111.37 -1.93 Q 111.37 -1.46 111.59 -1.13 Q 111.81 -0.8 112.21 -0.8 L 112.21 -0.8 Q 113.26 -0.8 113.72 -3.07 L 113.72 -3.07 Q 113.78 -3.37 113.92 -3.53 Q 114.05 -3.69 114.22 -3.69 L 114.22 -3.69 Q 114.47 -3.69 114.72 -3.41 Q 114.96 -3.13 114.96 -2.83 L 114.96 -2.83 Q 114.96 -2.8 114.95 -2.75 Q 114.94 -2.71 114.94 -2.69 L 114.94 -2.69 Q 114.77 -2.09 114.55 -1.58 Q 114.33 -1.07 113.98 -0.54 Q 113.62 -0.02 113.1 0.28 Q 112.57 0.58 111.93 0.58 L 111.93 0.58 Q 111.53 0.58 111.17 0.47 Q 110.81 0.35 110.49 0.09 Q 110.16 -0.17 109.96 -0.66 Q 109.77 -1.15 109.77 -1.8 L 109.77 -1.8 Q 109.77 -3.63 110.82 -6.45 L 110.82 -6.45 L 109.22 -6.45 L 108.99 -6.45 Q 108.93 -4.07 108.47 -2.58 L 108.47 -2.58 Q 108.34 -2.18 108.04 -2.18 L 108.04 -2.18 Q 107.96 -2.18 107.89 -2.2 L 107.89 -2.2 Q 107.54 -2.29 107.36 -2.67 L 107.36 -2.67 Q 107.24 -2.92 107.3 -3.17 L 107.3 -3.17 Q 107.57 -4.15 107.63 -6.83 L 107.63 -6.83 Q 106.72 -7.34 106.72 -8.17 Z M 118.2 -7.79 L 118.2 -7.79 Q 118.2 -7.9 118.41 -7.96 Q 118.63 -8.02 118.87 -8.02 L 118.87 -8.02 Q 119.37 -8.02 119.67 -7.76 Q 119.98 -7.5 120 -7.12 L 120 -7.12 Q 120.79 -8.23 121.92 -8.23 L 121.92 -8.23 Q 123.1 -8.23 123.72 -7.2 Q 124.35 -6.17 124.35 -4.53 L 124.35 -4.53 Q 124.35 -2.77 123.81 -1.47 L 123.81 -1.47 Q 124.31 -1.49 124.65 -1.59 Q 125 -1.69 125.24 -1.93 Q 125.49 -2.17 125.63 -2.4 Q 125.77 -2.63 125.99 -3.07 L 125.99 -3.07 Q 126.13 -3.38 126.24 -3.51 Q 126.34 -3.63 126.47 -3.63 L 126.47 -3.63 Q 126.73 -3.63 126.98 -3.35 Q 127.23 -3.07 127.23 -2.83 L 127.23 -2.83 Q 127.23 -2.45 126.97 -2 Q 126.72 -1.56 126.24 -1.14 Q 125.75 -0.72 124.93 -0.44 Q 124.11 -0.16 123.13 -0.16 L 123.13 -0.16 Q 122.71 0.29 122.14 0.54 Q 121.57 0.8 121.02 0.8 L 121.02 0.8 Q 120.29 0.8 120 0.48 L 120 0.48 L 120 7.31 Q 120 7.67 119.8 7.89 Q 119.6 8.11 119.38 8.17 Q 119.15 8.23 118.89 8.23 L 118.89 8.23 Q 118.61 8.23 118.51 8.09 Q 118.41 7.95 118.41 7.67 L 118.41 7.67 L 118.41 -6.99 Q 118.41 -7.35 118.3 -7.57 Q 118.2 -7.78 118.2 -7.79 Z M 120 -5.07 L 120 -0.52 Q 120.41 -1.13 121.98 -1.26 L 121.98 -1.26 Q 122.33 -1.77 122.52 -2.65 Q 122.72 -3.53 122.72 -4.2 L 122.72 -4.2 Q 122.72 -5.56 122.35 -6.19 Q 121.98 -6.83 121.39 -6.83 L 121.39 -6.83 Q 120.93 -6.83 120.56 -6.34 Q 120.19 -5.84 120 -5.07 L 120 -5.07 Z M 125.71 -3.57 L 125.71 -3.57 Q 125.71 -5.52 126.69 -6.88 Q 127.67 -8.23 128.92 -8.23 L 128.92 -8.23 Q 129.79 -8.23 130.31 -7.65 Q 130.82 -7.06 130.82 -6.11 L 130.82 -6.11 Q 130.82 -5.31 130.48 -4.52 Q 130.14 -3.73 129.41 -3.06 Q 128.69 -2.39 127.71 -2.1 L 127.71 -2.1 Q 128.26 -0.8 129.66 -0.8 L 129.66 -0.8 Q 130.25 -0.8 130.71 -1.03 Q 131.18 -1.25 131.47 -1.65 Q 131.76 -2.05 131.94 -2.49 Q 132.12 -2.92 132.22 -3.45 L 132.22 -3.45 Q 132.31 -3.9 132.64 -3.98 L 132.64 -3.98 Q 132.74 -4 132.82 -4 L 132.82 -4 Q 133.06 -4 133.27 -3.82 L 133.27 -3.82 Q 133.52 -3.62 133.52 -3.32 L 133.52 -3.32 Q 133.52 -3.28 133.51 -3.23 L 133.51 -3.23 Q 133.45 -2.79 133.33 -2.34 Q 133.2 -1.89 132.9 -1.34 Q 132.59 -0.79 132.16 -0.38 Q 131.73 0.03 131.02 0.31 Q 130.32 0.58 129.44 0.58 L 129.44 0.58 Q 128.72 0.58 128.05 0.3 Q 127.38 0.01 126.86 -0.5 Q 126.34 -1.02 126.03 -1.81 Q 125.71 -2.61 125.71 -3.57 Z M 127.44 -3.63 L 127.44 -3.63 Q 127.44 -3.57 127.45 -3.44 Q 127.46 -3.31 127.46 -3.25 L 127.46 -3.25 Q 128.25 -3.61 128.71 -4.38 Q 129.18 -5.15 129.18 -6.09 L 129.18 -6.09 Q 129.18 -6.44 129.06 -6.63 Q 128.94 -6.83 128.74 -6.83 L 128.74 -6.83 Q 128.38 -6.83 128.1 -6.46 Q 127.83 -6.09 127.69 -5.56 L 127.69 -5.56 Q 127.55 -5.02 127.49 -4.51 L 127.49 -4.51 Q 127.44 -4.12 127.44 -3.81 L 127.44 -3.81 Q 127.44 -3.71 127.44 -3.63 Z M 131.87 -2.58 L 131.87 -2.58 Q 131.87 -3.86 132.29 -4.94 Q 132.71 -6.02 133.4 -6.73 Q 134.1 -7.44 135 -7.84 Q 135.9 -8.23 136.86 -8.23 L 136.86 -8.23 Q 137.29 -8.23 137.56 -7.99 Q 137.82 -7.75 137.82 -7.35 L 137.82 -7.35 Q 137.82 -7.09 137.77 -6.98 Q 137.71 -6.87 137.56 -6.87 L 137.56 -6.87 Q 137.46 -6.87 137.25 -6.89 Q 137.04 -6.91 136.94 -6.91 L 136.94 -6.91 Q 136.32 -6.91 135.72 -6.64 Q 135.13 -6.38 134.62 -5.86 Q 134.11 -5.34 133.8 -4.48 Q 133.49 -3.61 133.49 -2.52 L 133.49 -2.52 Q 133.49 -1.71 133.8 -1.26 Q 134.12 -0.8 134.67 -0.8 L 134.67 -0.8 Q 135.41 -0.8 135.85 -1.89 L 135.85 -1.89 L 135.85 -5.13 Q 135.85 -5.36 135.81 -5.56 Q 135.77 -5.75 135.77 -5.79 L 135.77 -5.79 Q 135.77 -5.95 135.93 -6.05 Q 136.09 -6.15 136.32 -6.15 L 136.32 -6.15 Q 136.83 -6.15 137.14 -5.89 Q 137.45 -5.62 137.45 -5.23 L 137.45 -5.23 L 137.45 -1.76 Q 137.45 -1.37 137.63 -1.09 Q 137.81 -0.8 138.16 -0.8 L 138.16 -0.8 Q 139.11 -0.8 139.57 -3.07 L 139.57 -3.07 Q 139.63 -3.37 139.77 -3.53 Q 139.91 -3.69 140.08 -3.69 L 140.08 -3.69 Q 140.33 -3.69 140.57 -3.41 Q 140.81 -3.13 140.81 -2.83 L 140.81 -2.83 Q 140.81 -2.77 140.79 -2.69 L 140.79 -2.69 Q 140.66 -2.23 140.51 -1.81 Q 140.36 -1.39 140.09 -0.94 Q 139.83 -0.49 139.52 -0.16 Q 139.21 0.16 138.76 0.37 Q 138.3 0.58 137.78 0.58 L 137.78 0.58 Q 136.72 0.58 136.17 -0.28 L 136.17 -0.28 Q 135.42 0.58 134.37 0.58 L 134.37 0.58 Q 133.18 0.58 132.52 -0.3 Q 131.87 -1.19 131.87 -2.58 Z M 139.37 -3.38 L 139.37 -3.38 Q 139.37 -4.6 139.8 -5.71 Q 140.23 -6.82 141.03 -7.53 Q 141.83 -8.23 142.8 -8.23 L 142.8 -8.23 Q 143.31 -8.23 143.71 -8.02 Q 144.12 -7.8 144.34 -7.48 Q 144.56 -7.15 144.67 -6.81 Q 144.79 -6.47 144.79 -6.17 L 144.79 -6.17 Q 144.79 -5.72 144.28 -5.44 L 144.28 -5.44 Q 144.02 -5.3 143.82 -5.3 L 143.82 -5.3 Q 143.69 -5.3 143.59 -5.36 L 143.59 -5.36 Q 143.42 -5.46 143.46 -5.69 L 143.46 -5.69 Q 143.45 -5.73 143.41 -5.94 Q 143.36 -6.14 143.32 -6.25 Q 143.28 -6.37 143.19 -6.52 Q 143.1 -6.68 142.95 -6.75 Q 142.81 -6.83 142.6 -6.83 L 142.6 -6.83 Q 142.01 -6.83 141.55 -5.8 Q 141.09 -4.78 141.09 -3.38 L 141.09 -3.38 Q 141.09 -2.16 141.69 -1.48 Q 142.28 -0.8 143.24 -0.8 L 143.24 -0.8 Q 143.82 -0.8 144.3 -1.03 Q 144.77 -1.25 145.08 -1.65 Q 145.39 -2.04 145.58 -2.49 Q 145.78 -2.93 145.88 -3.45 L 145.88 -3.45 Q 145.96 -3.9 146.3 -3.98 L 146.3 -3.98 Q 146.4 -4 146.48 -4 L 146.48 -4 Q 146.72 -4 146.93 -3.82 L 146.93 -3.82 Q 147.17 -3.62 147.17 -3.32 L 147.17 -3.32 Q 147.17 -3.28 147.16 -3.23 L 147.16 -3.23 Q 147.11 -2.8 146.97 -2.34 Q 146.84 -1.88 146.52 -1.34 Q 146.2 -0.8 145.76 -0.38 Q 145.32 0.03 144.6 0.31 Q 143.88 0.58 143 0.58 L 143 0.58 Q 141.51 0.58 140.44 -0.48 Q 139.37 -1.54 139.37 -3.38 Z M 145.61 -3.57 L 145.61 -3.57 Q 145.61 -5.52 146.58 -6.88 Q 147.56 -8.23 148.81 -8.23 L 148.81 -8.23 Q 149.69 -8.23 150.2 -7.65 Q 150.71 -7.06 150.71 -6.11 L 150.71 -6.11 Q 150.71 -5.31 150.37 -4.52 Q 150.04 -3.73 149.31 -3.06 Q 148.58 -2.39 147.6 -2.1 L 147.6 -2.1 Q 148.15 -0.8 149.55 -0.8 L 149.55 -0.8 Q 150.14 -0.8 150.6 -1.03 Q 151.07 -1.25 151.36 -1.65 Q 151.66 -2.05 151.83 -2.49 Q 152.01 -2.92 152.12 -3.45 L 152.12 -3.45 Q 152.2 -3.9 152.54 -3.98 L 152.54 -3.98 Q 152.63 -4 152.71 -4 L 152.71 -4 Q 152.96 -4 153.16 -3.82 L 153.16 -3.82 Q 153.41 -3.62 153.41 -3.32 L 153.41 -3.32 Q 153.41 -3.28 153.4 -3.23 L 153.4 -3.23 Q 153.35 -2.79 153.22 -2.34 Q 153.09 -1.89 152.79 -1.34 Q 152.49 -0.79 152.06 -0.38 Q 151.62 0.03 150.92 0.31 Q 150.21 0.58 149.33 0.58 L 149.33 0.58 Q 148.61 0.58 147.94 0.3 Q 147.28 0.01 146.75 -0.5 Q 146.23 -1.02 145.92 -1.81 Q 145.61 -2.61 145.61 -3.57 Z M 147.33 -3.63 L 147.33 -3.63 Q 147.33 -3.57 147.34 -3.44 Q 147.35 -3.31 147.35 -3.25 L 147.35 -3.25 Q 148.14 -3.61 148.6 -4.38 Q 149.07 -5.15 149.07 -6.09 L 149.07 -6.09 Q 149.07 -6.44 148.95 -6.63 Q 148.84 -6.83 148.63 -6.83 L 148.63 -6.83 Q 148.27 -6.83 147.99 -6.46 Q 147.72 -6.09 147.58 -5.56 L 147.58 -5.56 Q 147.44 -5.02 147.38 -4.51 L 147.38 -4.51 Q 147.33 -4.12 147.33 -3.81 L 147.33 -3.81 Q 147.33 -3.71 147.33 -3.63 Z M 157 -5.27 L 157 -5.27 Q 157 -5.62 157.16 -5.99 Q 157.33 -6.37 157.59 -6.37 L 157.59 -6.37 L 161.83 -6.37 Q 161.91 -6.37 162 -6.42 Q 162.08 -6.47 162.1 -6.47 L 162.1 -6.47 Q 162.31 -6.47 162.31 -6.03 L 162.31 -6.03 Q 162.31 -5.64 162.11 -5.16 Q 161.92 -4.69 161.66 -4.69 L 161.66 -4.69 L 157.34 -4.69 Q 157.18 -4.69 157.09 -4.86 Q 157 -5.02 157 -5.27 Z" stroke-linecap="round" />
</g>
<g transform="matrix(1.137827963923175 0 0 1.1378279639231752 277.79510681469094 512.1966205837173)" id="logo-logo"  >
<g style=""  paint-order="stroke"   >
		<g transform="matrix(0.15921645832474676 0 0 -0.15921645832474676 -5.684342e-14 57.842843042123576)"  >
<path style="stroke: none; stroke-width: 1; stroke-dasharray: none; stroke-linecap: butt; stroke-dashoffset: 0; stroke-linejoin: miter; stroke-miterlimit: 4; fill: rgb(204,84,52); fill-rule: nonzero; opacity: 1;"  paint-order="stroke"  transform=" translate(-8526.47, -881.8595)" d="m 8865.14 1047.41 c -50.81 0 -93.53 -33.08 -138.76 -68.101 c -53.84 -41.68 -114.88 -88.938 -199.91 -88.938 c -85.02 0 -146.06 47.258 -199.91 88.938 c -45.22 35.021 -87.95 68.101 -138.76 68.101 c -91.28 0 -165.55 -74.265 -165.55 -165.555 c 0 -91.289 74.27 -165.546 165.55 -165.546 h 159.88 v 75.679 H 8187.8 c -49.55 0 -89.87 40.309 -89.87 89.867 c 0 49.563 40.32 89.872 89.87 89.872 c 24.95 0 56.22 -24.211 92.43 -52.25 c 60.3 -46.68 135.34 -104.786 246.24 -104.786 c 110.91 0 185.94 58.106 246.24 104.786 c 36.22 28.039 67.49 52.25 92.43 52.25 c 49.56 0 89.87 -40.309 89.87 -89.872 c 0 -49.558 -40.31 -89.867 -89.87 -89.867 h -159.87 v -75.679 h 159.87 c 91.28 0 165.55 74.257 165.55 165.546 c 0 91.29 -74.27 165.555 -165.55 165.555" stroke-linecap="round" />
</g>
		<g transform="matrix(0.15921645832474676 0 0 -0.15921645832474676 -5.684342e-14 1.1784606422073978)"  >
<path style="stroke: none; stroke-width: 1; stroke-dasharray: none; stroke-linecap: butt; stroke-dashoffset: 0; stroke-linejoin: miter; stroke-miterlimit: 4; fill: rgb(204,84,52); fill-rule: nonzero; opacity: 1;"  paint-order="stroke"  transform=" translate(-8526.47, -1237.7547572876629)" d="m 9031.58 1421.51 c -201.79 33.76 -295.09 -35.17 -370.01 -90.58 c -45.55 -33.68 -81.52 -60.27 -135.1 -60.27 c -53.57 0 -89.54 26.59 -135.09 60.27 c -74.93 55.41 -168.24 124.32 -370.01 90.58 l -33.23 -5.56 l 1.68 -33.66 c 4.5 -89.94 53.29 -179.58 133.87 -245.93 c 71.16 -58.61 156.95 -91.3 236.27 -91.29 c 13.16 0 26.13 0.89 38.84 2.72 l 39.34 5.66 l -7.59 39.03 c -21.56 110.79 -175.39 239.75 -278.99 233.63 l 4.37 -75.56 c 53.62 3.34 142.6 -64.08 181.94 -128.62 c -55.7 5.61 -115.85 31.49 -166.07 72.85 c -53.53 44.08 -89.39 99.9 -101.81 157.08 c 144.64 15.64 211.57 -33.85 276.4 -81.79 c 49.93 -36.91 101.57 -75.09 180.08 -75.09 c 78.51 0 130.15 38.18 180.08 75.09 c 64.83 47.94 131.7 97.5 276.41 81.79 c -12.43 -57.18 -48.29 -113 -101.81 -157.08 c -50.23 -41.36 -110.37 -67.24 -166.08 -72.85 c 39.34 64.54 127.86 132.03 181.94 128.62 l 4.38 75.56 c -103.87 6.03 -257.44 -122.84 -279 -233.63 l -7.59 -39.03 l 39.34 -5.66 c 12.71 -1.83 25.68 -2.72 38.84 -2.72 c 79.33 0 165.12 32.7 236.27 91.29 c 80.59 66.35 129.38 155.99 133.88 245.93 l 1.67 33.66 l -33.22 5.56" stroke-linecap="round" />
</g>
		<g transform="matrix(0.15921645832474676 0 0 -0.15921645832474676 0.0007960822912878029 -38.60260619632092)"  >
<path style="stroke: none; stroke-width: 1; stroke-dasharray: none; stroke-linecap: butt; stroke-dashoffset: 0; stroke-linejoin: miter; stroke-miterlimit: 4; fill: rgb(204,84,52); fill-rule: nonzero; opacity: 1;"  paint-order="stroke"  transform=" translate(-8526.474999999999, -1487.6100000000001)" d="m 8526.47 1656 c -92.84 0 -168.38 -75.54 -168.38 -168.39 c 0 -92.86 75.54 -168.39 168.38 -168.39 c 92.85 0 168.39 75.53 168.39 168.39 c 0 92.85 -75.54 168.39 -168.39 168.39 z m 0 -261.1 c -51.12 0 -92.7 41.6 -92.7 92.71 c 0 51.11 41.58 92.71 92.7 92.71 c 51.12 0 92.71 -41.6 92.71 -92.71 c 0 -51.11 -41.59 -92.71 -92.71 -92.71" stroke-linecap="round" />
</g>
		<g transform="matrix(0.15921645832474676 0 0 -0.15921645832474676 -5.684342e-14 -88.40790260717651)"  >
<path style="stroke: none; stroke-width: 1; stroke-dasharray: none; stroke-linecap: butt; stroke-dashoffset: 0; stroke-linejoin: miter; stroke-miterlimit: 4; fill: rgb(204,84,52); fill-rule: nonzero; opacity: 1;"  paint-order="stroke"  transform=" translate(-8526.47, -1800.4250000000002)" d="m 8564.31 1887.46 h -75.68 v -174.07 h 75.68 v 174.07" stroke-linecap="round" />
</g>
		<g transform="matrix(0.15921645832474676 0 0 -0.15921645832474676 -31.152292235820198 -77.42196698276902)"  >
<path style="stroke: none; stroke-width: 1; stroke-dasharray: none; stroke-linecap: butt; stroke-dashoffset: 0; stroke-linejoin: miter; stroke-miterlimit: 4; fill: rgb(204,84,52); fill-rule: nonzero; opacity: 1;"  paint-order="stroke"  transform=" translate(-8330.81, -1731.4250000000002)" d="m 8418.96 1696.91 l -122.84 122.6 l -53.46 -53.57 l 122.84 -122.6 l 53.46 53.57" stroke-linecap="round" />
</g>
		<g transform="matrix(0.15921645832474676 0 0 -0.15921645832474676 -48.660530075500844 -53.74966395904562)"  >
<path style="stroke: none; stroke-width: 1; stroke-dasharray: none; stroke-linecap: butt; stroke-dashoffset: 0; stroke-linejoin: miter; stroke-miterlimit: 4; fill: rgb(204,84,52); fill-rule: nonzero; opacity: 1;"  paint-order="stroke"  transform=" translate(-8220.845000000001, -1582.7450000000001)" d="m 8317.37 1572.91 l -156.62 86.01 l -36.43 -66.33 l 156.61 -86.02 l 36.44 66.34" stroke-linecap="round" />
</g>
		<g transform="matrix(0.15921645832474676 0 0 -0.15921645832474676 31.153088318111713 -77.42196698276902)"  >
<path style="stroke: none; stroke-width: 1; stroke-dasharray: none; stroke-linecap: butt; stroke-dashoffset: 0; stroke-linejoin: miter; stroke-miterlimit: 4; fill: rgb(204,84,52); fill-rule: nonzero; opacity: 1;"  paint-order="stroke"  transform=" translate(-8722.135000000002, -1731.4250000000002)" d="m 8810.29 1765.94 l -53.47 53.57 l -122.84 -122.6 l 53.47 -53.57 l 122.84 122.6" stroke-linecap="round" />
</g>
		<g transform="matrix(0.15921645832474676 0 0 -0.15921645832474676 48.6613261577923 -53.74966395904562)"  >
<path style="stroke: none; stroke-width: 1; stroke-dasharray: none; stroke-linecap: butt; stroke-dashoffset: 0; stroke-linejoin: miter; stroke-miterlimit: 4; fill: rgb(204,84,52); fill-rule: nonzero; opacity: 1;"  paint-order="stroke"  transform=" translate(-8832.1, -1582.745)" d="m 8772.01 1506.57 l 156.62 86.02 l -36.44 66.33 l -156.62 -86.01 l 36.44 -66.34" stroke-linecap="round" />
</g>
		<g transform="matrix(1.3160693071748166 0 0 1.3160693071748166 -5.684342e-14 2.842171e-14)"  >
<g style=""  paint-order="stroke"   >
		<g transform="matrix(1 0 0 1 0 0)"  >
<path style="stroke: none; stroke-width: 1; stroke-dasharray: none; stroke-linecap: butt; stroke-dashoffset: 0; stroke-linejoin: miter; stroke-miterlimit: 4; fill: rgb(204,84,52); fill-rule: nonzero; opacity: 1;"  paint-order="stroke"  transform=" translate(-100, -100)" d="M 100 0 C 44.8 0 0 44.8 0 100 s 44.8 100 100 100 s 100 -44.8 100 -100 S 155.2 0 100 0 z M 100 190 c -49.6 0 -90 -40.4 -90 -90 s 40.4 -90 90 -90 s 90 40.4 90 90 S 149.6 190 100 190 z" stroke-linecap="round" />
</g>
</g>
</g>
</g>
</g>
</svg>